<svg id="Capa_1" data-name="Capa 1" xmlns="http://www.w3.org/2000/svg" viewBox="0 0 591.08 124.83"><defs><style>.cls-1{fill:#FFF;}.cls-2{fill:#54b398;}.cls-3{fill:#f8bf2c;}.cls-4{fill:#e7623b;}</style></defs><title>logo</title><path class="cls-1" d="M207.9,31.55C223,31.55,230,39.27,230,52.8V67.7c0,13.75-7.19,21.57-22.52,21.57-6,0-11-3.3-13.74-4.25v23.39c0,1.9-.63,2.53-2.54,2.53h-4.44c-1.79,0-2.43-.63-2.43-2.53V40.64c0-3.49.74-4.65,4.12-6C192.57,33,198.7,31.55,207.9,31.55Zm-1.38,8.67a39.1,39.1,0,0,0-11.2,1.58c-1.38.64-1.59,1-1.59,2.22V77.85c2.43.85,7.4,2.75,13,2.75,9.51,0,13.74-4.44,13.74-13.21V53.11C220.48,44.66,215.83,40.22,206.52,40.22Z"/><path class="cls-1" d="M567.5,31.55c-15.12,0-22.09,7.72-22.09,21.25V67.7c0,13.75,7.19,21.57,22.52,21.57,6.34,0,10.5-3.13,13.74-4.25v2.45c0,1.9.63,2.53,2.54,2.53h4.44c1.79,0,2.43-.63,2.43-2.53V40.64c0-3.49-.74-4.65-4.12-6C582.83,33,576.7,31.55,567.5,31.55Zm1.38,8.67a39.1,39.1,0,0,1,11.2,1.58c1.38.64,1.59,1,1.59,2.22V77.85c-2.43.85-7.4,2.75-13,2.75-9.51,0-13.74-4.44-13.74-13.21V53.11C554.92,44.66,559.57,40.22,568.88,40.22Z"/><path class="cls-1" d="M265.68,31.55c1.9,0,2.54.63,2.54,2.53v3.6c0,1.9-.64,2.54-2.54,2.54H262A40,40,0,0,0,249.82,42a1.87,1.87,0,0,0-1.48,2.12v41c0,1.9-.63,2.54-2.53,2.54h-4.44c-1.8,0-2.44-.64-2.44-2.54V40.74c0-3.27.74-4.54,4-5.91,3.91-1.49,10-3.07,19.35-3.28Z"/><path class="cls-1" d="M298.35,31.55c15.23,0,23.79,7.72,23.79,20.3V69.08c0,12.47-8.56,20.19-23.79,20.19-14.9,0-23.68-7.72-23.68-20.19V51.85C274.67,39.27,283.45,31.55,298.35,31.55Zm0,8.56c-8.88,0-14.27,4.33-14.27,11.63V69.08c0,7.29,5.39,11.63,14.27,11.63s14.38-4.34,14.38-11.63V51.74C312.73,44.44,307.34,40.11,298.35,40.11Z"/><path class="cls-1" d="M351.21,31.55c12.26,0,18.92,4.54,22.1,11.42.95,1.9.42,3-1.27,3.7l-3.6,1.47c-1.9.85-2.43.53-3.49-1.16-2-4.12-5.39-6.87-13.53-6.87s-12.05,2.54-12.05,7.61c0,6.77,5.6,7.62,14.38,8.35,12.05,1.17,20.93,3.81,20.93,16.29,0,10-7.29,16.91-22.1,16.91-12.05,0-19.87-4.33-23.15-13-.74-1.69-.32-2.75,1.59-3.39l3.59-1.26c1.69-.53,2.54-.32,3.39,1.58,2.11,5.5,6.87,7.61,14.27,7.61,9,0,13.21-2.85,13.21-8,0-6.34-5.18-7.51-14.06-8.35C340.85,63.37,330,61.57,330,47.93,330,38.1,337.15,31.55,351.21,31.55Z"/><path class="cls-1" d="M430.27,35.67V79.76c0,3.27-.74,4.54-4,5.92a53.78,53.78,0,0,1-20.2,3.59c-14.8,0-21.46-7.82-21.46-20.93V35.67c0-1.9.64-2.54,2.54-2.54h4.44c1.8,0,2.43.64,2.43,2.54V68c0,8.35,4.23,12.58,13.32,12.58a38.21,38.21,0,0,0,11.95-1.8,2.27,2.27,0,0,0,1.58-2.43V35.67c0-1.9.64-2.54,2.54-2.54h4.34C429.64,33.13,430.27,33.77,430.27,35.67Z"/><path class="cls-1" d="M494.61,31.55c13.85,0,20,7.4,20,20.51V85.15c0,1.9-.63,2.54-2.43,2.54h-4.44c-1.9,0-2.54-.64-2.54-2.54V52.37c0-8.14-3.8-12.15-11.84-12.15a30.77,30.77,0,0,0-12.47,2.85,21.1,21.1,0,0,1,1.58,9V85.15c0,1.9-.63,2.54-2.43,2.54h-4.44c-1.9,0-2.54-.64-2.54-2.54V52.37c0-8.14-4-12.15-12.05-12.15a27.77,27.77,0,0,0-9.93,1.69,2.07,2.07,0,0,0-1.27,2.22v41c0,1.9-.64,2.54-2.54,2.54h-4.44c-1.8,0-2.43-.64-2.43-2.54V41.06c0-3.28.74-4.65,4-6a42.77,42.77,0,0,1,17.87-3.49c5.92,0,10.36,1.37,13.53,4A46.08,46.08,0,0,1,494.61,31.55Z"/><path class="cls-1" d="M536.87,18.23v.84c0,3.81-1.16,5.08-5.08,5.08h-.63c-3.81,0-5.07-1.17-5.07-5.08v-.84c0-3.81,1.26-5.08,5.07-5.08h.63C535.71,13.15,536.87,14.42,536.87,18.23Zm-.63,17.44V85.15c0,1.9-.64,2.54-2.54,2.54h-4.44c-1.91,0-2.54-.64-2.54-2.54V35.67c0-1.9.63-2.54,2.54-2.54h4.44C535.6,33.13,536.24,33.77,536.24,35.67Z"/><path class="cls-2" d="M54.58,88.54c-6-3.5-12.19-6.69-18-9.46-2.84-1.36-5.58-2.61-8.14-3.75-8.61-3.83-15.2-6.33-16.87-7a7.08,7.08,0,0,1,.06-12c1.51-.63,8.17-3.43,16.8-7.46-.18-3.06-.4-6.06-.64-8.94C16.92,45.21,8.35,48.76,8.2,48.82s-.33.15-.49.24a15.42,15.42,0,0,0,0,26.71,5.51,5.51,0,0,0,.65.31c.14,0,8.55,3.15,19.5,8.14,2.57,1.17,5.28,2.44,8,3.81,4.75,2.33,9.7,4.93,14.46,7.71,3.68,2.15,7.32,4.43,10.81,6.72,2.33-1.65,4.81-3.37,7.41-5.11C64.16,94.39,59.42,91.37,54.58,88.54Z"/><path class="cls-2" d="M109.32,84.22c-.24-2.87-.46-5.86-.63-8.89-.24-4.33-.39-8.76-.39-13s.16-8.91.41-13.32c-2.56-1.2-5.3-2.51-8.12-3.9-.38,5.59-.64,11.47-.64,17.22,0,5.59.24,11.33.61,16.8.2,3.09.44,6.1.7,9,1,11.06,2.3,19.73,2.59,21.64a7.07,7.07,0,0,1-10.35,6C92,114.43,85.21,109,76,102.46c-2.57,1.69-5,3.37-7.41,5,11.4,7.94,19.8,14.79,19.92,14.89a4.24,4.24,0,0,0,.56.38,15.42,15.42,0,0,0,23.13-13.35,4.6,4.6,0,0,0,0-.64C112.12,108.58,110.45,97.75,109.32,84.22Z"/><path class="cls-2" d="M54.89,35.36c4.69-2.7,9.33-5.61,13.7-8.47,2.63-1.72,5.16-3.43,7.53-5.07,9.1-6.27,15.9-11.5,17.35-12.63a7.08,7.08,0,0,1,10.38,6c-.29,1.87-1.53,10.21-2.54,20.94,2.76,1.38,5.46,2.7,8,3.92,1.13-13.26,2.77-23.77,2.8-23.93a4.62,4.62,0,0,0,0-.65A15.42,15.42,0,0,0,89.07,2.09a4.07,4.07,0,0,0-.48.33c-.13.1-8.7,6.77-20,14.43-2.41,1.63-4.94,3.31-7.54,5C57.69,24,54.2,26.13,50.72,28.14c-4.8,2.77-9.91,5.47-14.86,8,.27,2.84.52,5.85.73,9C42.55,42.13,48.91,38.82,54.89,35.36Z"/><path class="cls-3" d="M129.47,49.06a4.59,4.59,0,0,0-.5-.24c-.14-.06-8.71-3.61-19.62-8.8-2.58-1.22-5.28-2.54-8-3.92-4.94-2.49-10-5.19-14.85-8-3.49-2-7-4.16-10.34-6.32-2.37,1.64-4.9,3.35-7.53,5.07,4.36,2.86,9,5.77,13.69,8.47,6,3.46,12.35,6.77,18.31,9.7,2.82,1.39,5.56,2.7,8.12,3.9,8.63,4,15.29,6.83,16.79,7.46a7.07,7.07,0,0,1,.06,12c-1.67.62-8.25,3.12-16.87,7,.17,3,.39,6,.63,8.89,11-5,19.36-8.09,19.5-8.14a5.51,5.51,0,0,0,.65-.31,15.42,15.42,0,0,0,0-26.71Z"/><path class="cls-3" d="M82.59,88.54c-4.84,2.83-9.58,5.85-14,8.81-2.6,1.74-5.08,3.46-7.41,5.11-9.21,6.53-16,12-17.51,13.2a7.07,7.07,0,0,1-10.34-6c.29-1.91,1.57-10.58,2.58-21.64-2.77-1.37-5.48-2.64-8-3.81-1.13,13.53-2.81,24.36-2.83,24.53a3.45,3.45,0,0,0-.05.64,15.39,15.39,0,0,0,23.13,13.35,4.14,4.14,0,0,0,.55-.38c.13-.1,8.53-7,19.93-14.89,2.36-1.64,4.84-3.32,7.41-5,3.49-2.29,7.13-4.57,10.8-6.72C91.57,93,96.51,90.36,101.26,88c-.26-2.85-.5-5.86-.7-9C94.79,81.85,88.59,85,82.59,88.54Z"/><path class="cls-3" d="M27.83,40c.24,2.88.46,5.88.64,8.94.25,4.41.41,8.92.41,13.32s-.15,8.72-.4,13c2.56,1.14,5.3,2.39,8.14,3.75.36-5.47.61-11.21.61-16.8,0-5.75-.26-11.63-.64-17.22-.21-3.11-.46-6.12-.73-9-1-10.73-2.24-19.07-2.53-20.94a7.08,7.08,0,0,1,10.38-6c1.45,1.13,8.25,6.36,17.34,12.63,2.6-1.66,5.13-3.34,7.54-5C57.28,9.19,48.72,2.52,48.59,2.42a4.07,4.07,0,0,0-.48-.33A15.42,15.42,0,0,0,25,15.44a3.49,3.49,0,0,0,.05.65C25.05,16.25,26.69,26.76,27.83,40Z"/><path class="cls-4" d="M68.56,71.18a8.72,8.72,0,1,1,8.58-8.85,8.73,8.73,0,0,1-8.58,8.85"/></svg>